# xmcd
#
# Track frame offsets: 
#        150
#        15324
#        41597
#        53772
#        71967
#        92717
#        103207
#        120469
#        130181
#        143537
#        153755
#        165064
#        182519
#        198913
#
# Disc length: 2842 seconds
#
# Revision: 0
# Processed by: cddbd v1.5.1PL0 Copyright (c) Steve Scherf et al.
# Submitted via: ExactAudioCopy v0.95b1
#
DISCID=a90b180e
DTITLE=Hugo Race and True Spirit - Ambuscado
DYEAR=2005
DGENRE=Rock
TTITLE0=Yeah U
TTITLE1=Will the Circle Be Unbroken?
TTITLE2=Ducados
TTITLE3=Girl Called Sunset
TTITLE4=Essential Serbo-Croat
TTITLE5=Komota Pt 1
TTITLE6=Spirit World Rising
TTITLE7=Surfing the Alpha
TTITLE8=Religious Sound
TTITLE9=In the Valley of the Moon
TTITLE10=Ostrava
TTITLE11=John the Revelator 2000
TTITLE12=The Judge
TTITLE13=Komota Pt 2
EXTD=GRCD 635 - www.helixed.net
EXTT0=
EXTT1=
EXTT2=
EXTT3=
EXTT4=
EXTT5=
EXTT6=
EXTT7=
EXTT8=
EXTT9=
EXTT10=
EXTT11=
EXTT12=
EXTT13=
PLAYORDER=
